<svg xmlns="http://www.w3.org/2000/svg" viewBox="0 0 24 24" fill="none">
    <path
        d="M19 3H5C3.9 3 3 3.9 3 5V19C3 20.1 3.9 21 5 21H19C20.1 21 21 20.1 21 19V5C21 3.9 20.1 3 19 3ZM19 19H5V5H19V19Z"
        fill="currentColor" />
    <path d="M7 16C7 16.55 7.45 17 8 17C8.55 17 9 16.55 9 16V13C9 12.45 8.55 12 8 12C7.45 12 7 12.45 7 13V16Z"
        fill="currentColor" />
    <path
        d="M11 16C11 16.55 11.45 17 12 17C12.55 17 13 16.55 13 16V15C13 14.45 12.55 14 12 14C11.45 14 11 14.45 11 15V16Z"
        fill="currentColor" />
    <path d="M11 11C11 11.55 11.45 12 12 12C12.55 12 13 11.55 13 11C13 10.45 12.55 10 12 10C11.45 10 11 10.45 11 11Z"
        fill="currentColor" />
    <path d="M15 16C15 16.55 15.45 17 16 17C16.55 17 17 16.55 17 16V8C17 7.45 16.55 7 16 7C15.45 7 15 7.45 15 8V16Z"
        fill="currentColor" />
</svg>