<svg width="24" height="25" viewBox="0 0 24 25" fill="none" xmlns="http://www.w3.org/2000/svg">
<g id="icon before">
<path id="Vector" d="M19.3997 17.6215C19.1322 18.2441 18.8021 18.8379 18.4142 19.3936C18.0489 19.9505 17.6228 20.4652 17.1438 20.9282C16.709 21.3631 16.127 21.6196 15.5126 21.6469C14.9918 21.6241 14.4801 21.5021 14.0051 21.2873C13.4924 21.0639 12.9412 20.942 12.3822 20.9286C11.8087 20.9402 11.2429 21.062 10.7155 21.2873C10.2594 21.493 9.77213 21.6212 9.27383 21.6665C8.95972 21.663 8.64959 21.5958 8.36224 21.4688C8.07489 21.3419 7.8163 21.158 7.60216 20.9282C7.10273 20.4487 6.65742 19.916 6.27425 19.3394C5.67556 18.4812 5.20258 17.5418 4.86966 16.5498C4.49002 15.482 4.29076 14.3585 4.28008 13.2252C4.24983 12.1135 4.52556 11.0147 5.07716 10.049C5.47918 9.35159 6.0544 8.76977 6.74716 8.35982C7.42989 7.95147 8.20876 7.73162 9.00424 7.72273C9.60517 7.75833 10.1957 7.89585 10.7505 8.1294C11.1927 8.32409 11.6582 8.46092 12.1355 8.53648C12.6616 8.42665 13.1758 8.26603 13.6709 8.0569C14.3329 7.78778 15.0442 7.66142 15.7584 7.68607C16.4386 7.70377 17.1055 7.87787 17.7076 8.19486C18.3096 8.51185 18.8306 8.96322 19.2301 9.51398C18.5965 9.8508 18.0693 10.3575 17.7076 10.9771C17.3459 11.5968 17.1639 12.305 17.1822 13.0223C17.1751 13.5708 17.2847 14.1145 17.5039 14.6173C17.723 15.1202 18.0465 15.5707 18.453 15.939C18.8216 16.2921 19.252 16.5746 19.7226 16.7723C19.6212 17.0673 19.5136 17.3504 19.3997 17.6215ZM15.8622 3.70107C15.85 4.64945 15.4937 5.56113 14.8597 6.26648C14.0538 7.20815 13.0792 7.75273 12.0226 7.6669C12.0081 7.55163 12.0009 7.43557 12.0009 7.3194C12.0329 6.35559 12.4105 5.43543 13.0647 4.7269C13.4275 4.31956 13.8681 3.98879 14.3605 3.75398C14.8215 3.51602 15.3257 3.37319 15.843 3.33398C15.856 3.45591 15.8624 3.57845 15.8622 3.70107Z" fill="#221A15"/>
</g>
</svg>
