<svg viewBox="0 0 18 17" fill="none" xmlns="http://www.w3.org/2000/svg">
    <path
        d="M10.666 3.99984V2.33317H7.33268V3.99984H10.666ZM2.33268 6.49984V13.9998C2.33268 14.4582 2.70768 14.8332 3.16602 14.8332H14.8327C15.291 14.8332 15.666 14.4582 15.666 13.9998V6.49984C15.666 6.0415 15.291 5.6665 14.8327 5.6665H3.16602C2.70768 5.6665 2.33268 6.0415 2.33268 6.49984ZM15.666 3.99984C16.591 3.99984 17.3327 4.7415 17.3327 5.6665V14.8332C17.3327 15.7582 16.591 16.4998 15.666 16.4998H2.33268C1.40768 16.4998 0.666016 15.7582 0.666016 14.8332L0.674349 5.6665C0.674349 4.7415 1.40768 3.99984 2.33268 3.99984H5.66602V2.33317C5.66602 1.40817 6.40768 0.666504 7.33268 0.666504H10.666C11.591 0.666504 12.3327 1.40817 12.3327 2.33317V3.99984H15.666Z"
        fill="currentColor" />
</svg>