<svg width="64" height="64" viewBox="0 0 64 64" fill="none" xmlns="http://www.w3.org/2000/svg">
<path d="M42.5092 9.13353C39.5063 7.75327 36.2609 6.97799 32.9584 6.85197C29.6559 6.72594 26.3608 7.25163 23.2615 8.39901C20.1621 9.5464 17.3191 11.293 14.8947 13.5392C12.4704 15.7853 10.5122 18.4869 9.1319 21.4898C7.75164 24.4927 6.97637 27.7381 6.85034 31.0406C6.72431 34.3432 7.25 37.6382 8.39739 40.7376C9.54478 43.8369 11.2914 46.68 13.5375 49.1043C15.7837 51.5287 18.4853 53.4869 21.4882 54.8671C24.4911 56.2474 27.7365 57.0227 31.039 57.1487C34.3416 57.2747 37.6366 56.749 40.7359 55.6016C43.8353 54.4543 46.6783 52.7076 49.1027 50.4615C51.527 48.2154 53.4853 45.5137 54.8655 42.5108C56.2458 39.5079 57.021 36.2625 57.1471 32.96C57.2731 29.6575 56.7474 26.3625 55.6 23.2631C54.4526 20.1637 52.706 17.3207 50.4599 14.8963C48.2138 12.472 45.5121 10.5138 42.5092 9.13352L42.5092 9.13353Z" stroke="#006EDF" stroke-width="3" stroke-linecap="round"/>
<path d="M27.9995 37.5998L23.3328 32.9331C22.8128 32.4131 21.9862 32.4131 21.4662 32.9331C20.9462 33.4531 20.9462 34.2798 21.4662 34.7998L27.0528 40.3864C27.5728 40.9064 28.4128 40.9064 28.9328 40.3864L43.0662 26.2664C43.5862 25.7464 43.5862 24.9198 43.0662 24.3998C42.5462 23.8798 41.7195 23.8798 41.1995 24.3998L27.9995 37.5998Z" fill="#006EDF"/>
</svg>
