<svg xmlns="http://www.w3.org/2000/svg" viewBox="0 0 20 20" fill="none">
    <path fill-rule="evenodd" clip-rule="evenodd"
        d="M1.66602 10.0001C1.66602 5.40008 5.39935 1.66675 9.99935 1.66675C14.5993 1.66675 18.3327 5.40008 18.3327 10.0001C18.3327 14.6001 14.5993 18.3334 9.99935 18.3334C5.39935 18.3334 1.66602 14.6001 1.66602 10.0001ZM11.8077 10.1417L12.5577 9.37508C13.4077 8.52508 13.6993 7.06675 12.716 5.70842C11.966 4.66675 10.7577 4.00841 9.49102 4.20842C8.19935 4.40842 7.15768 5.34175 6.79935 6.56675C6.66602 7.03341 6.99935 7.50008 7.48268 7.50008H7.73268C8.05768 7.50008 8.31602 7.26675 8.41602 6.95842C8.69102 6.16675 9.54935 5.64175 10.4743 5.90008C11.0577 6.06675 11.5243 6.57508 11.6327 7.17508C11.741 7.75841 11.5577 8.30841 11.1743 8.67508L10.141 9.72508C9.79102 10.0751 9.51602 10.5084 9.34935 10.9917C9.32004 11.0776 9.29915 11.1313 9.28297 11.173C9.23475 11.297 9.22841 11.3133 9.16602 11.7501C9.11003 12.0586 9.34935 12.5001 9.81927 12.5001H10.0855C10.7635 12.5001 10.8589 11.9831 10.9161 11.673C10.9246 11.6266 10.9323 11.5848 10.941 11.5501C11.091 10.9501 11.391 10.5667 11.8077 10.1417ZM9.48132 15.7824C9.63549 15.8854 9.81675 15.9404 10.0022 15.9404C10.2508 15.9404 10.4893 15.8416 10.6651 15.6658C10.8409 15.49 10.9397 15.2515 10.9397 15.0029C10.9397 14.8175 10.8847 14.6362 10.7817 14.4821C10.6787 14.3279 10.5322 14.2077 10.3609 14.1368C10.1896 14.0658 10.0011 14.0472 9.81927 14.0834C9.63741 14.1196 9.47037 14.2089 9.33926 14.34C9.20814 14.4711 9.11886 14.6381 9.08268 14.82C9.04651 15.0019 9.06508 15.1904 9.13603 15.3617C9.20699 15.533 9.32715 15.6794 9.48132 15.7824Z"
        fill="currentColor" />
</svg>