<svg viewBox="0 0 17 18" fill="none" xmlns="http://www.w3.org/2000/svg">
    <path
        d="M8.325 0.666504C3.725 0.666504 0 4.39984 0 8.99984C0 13.5998 3.725 17.3332 8.325 17.3332C12.9333 17.3332 16.6667 13.5998 16.6667 8.99984C16.6667 4.39984 12.9333 0.666504 8.325 0.666504ZM8.33333 15.6665C4.65 15.6665 1.66667 12.6832 1.66667 8.99984C1.66667 5.3165 4.65 2.33317 8.33333 2.33317C12.0167 2.33317 15 5.3165 15 8.99984C15 12.6832 12.0167 15.6665 8.33333 15.6665ZM8.15 4.83317H8.1C7.76667 4.83317 7.5 5.09984 7.5 5.43317V9.3665C7.5 9.65817 7.65 9.93317 7.90833 10.0832L11.3667 12.1582C11.65 12.3248 12.0167 12.2415 12.1833 11.9582C12.3583 11.6748 12.2667 11.2998 11.975 11.1332L8.75 9.2165V5.43317C8.75 5.09984 8.48333 4.83317 8.15 4.83317Z"
        fill="currentColor" />
</svg>