<svg xmlns="http://www.w3.org/2000/svg" viewBox="0 0 20 20" fill="none">
  <path
    d="M15.2506 4.75794C14.9256 4.43294 14.4006 4.43294 14.0756 4.75794L10.0006 8.82461L5.92559 4.74961C5.60059 4.42461 5.07559 4.42461 4.75059 4.74961C4.42559 5.07461 4.42559 5.59961 4.75059 5.92461L8.82559 9.99961L4.75059 14.0746C4.42559 14.3996 4.42559 14.9246 4.75059 15.2496C5.07559 15.5746 5.60059 15.5746 5.92559 15.2496L10.0006 11.1746L14.0756 15.2496C14.4006 15.5746 14.9256 15.5746 15.2506 15.2496C15.5756 14.9246 15.5756 14.3996 15.2506 14.0746L11.1756 9.99961L15.2506 5.92461C15.5673 5.60794 15.5673 5.07461 15.2506 4.75794V4.75794Z"
    fill="currentColor" />
</svg>