<svg viewBox="0 0 14 17" fill="none" xmlns="http://www.w3.org/2000/svg">
    <path
        d="M6.66667 15.1248C8.36111 13.5693 9.61806 12.1561 10.4375 10.8853C11.2569 9.61442 11.6667 8.48595 11.6667 7.49984C11.6667 5.98595 11.184 4.74637 10.2187 3.78109C9.25347 2.81581 8.06944 2.33317 6.66667 2.33317C5.26389 2.33317 4.07986 2.81581 3.11458 3.78109C2.14931 4.74637 1.66667 5.98595 1.66667 7.49984C1.66667 8.48595 2.07639 9.61442 2.89583 10.8853C3.71528 12.1561 4.97222 13.5693 6.66667 15.1248ZM6.66667 16.7707C6.47222 16.7707 6.27778 16.736 6.08333 16.6665C5.88889 16.5971 5.71528 16.4929 5.5625 16.354C4.65972 15.5207 3.86111 14.7082 3.16667 13.9165C2.47222 13.1248 1.89236 12.3575 1.42708 11.6144C0.961805 10.8714 0.607639 10.1561 0.364583 9.46859C0.121528 8.78109 0 8.12484 0 7.49984C0 5.4165 0.670139 3.75678 2.01042 2.52067C3.35069 1.28456 4.90278 0.666504 6.66667 0.666504C8.43056 0.666504 9.98264 1.28456 11.3229 2.52067C12.6632 3.75678 13.3333 5.4165 13.3333 7.49984C13.3333 8.12484 13.2118 8.78109 12.9687 9.46859C12.7257 10.1561 12.3715 10.8714 11.9062 11.6144C11.441 12.3575 10.8611 13.1248 10.1667 13.9165C9.47222 14.7082 8.67361 15.5207 7.77083 16.354C7.61806 16.4929 7.44444 16.5971 7.25 16.6665C7.05556 16.736 6.86111 16.7707 6.66667 16.7707ZM6.66667 8.99984C7.125 8.99984 7.51736 8.83664 7.84375 8.51025C8.17014 8.18387 8.33333 7.7915 8.33333 7.33317C8.33333 6.87484 8.17014 6.48248 7.84375 6.15609C7.51736 5.8297 7.125 5.6665 6.66667 5.6665C6.20833 5.6665 5.81597 5.8297 5.48958 6.15609C5.16319 6.48248 5 6.87484 5 7.33317C5 7.7915 5.16319 8.18387 5.48958 8.51025C5.81597 8.83664 6.20833 8.99984 6.66667 8.99984Z"
        fill="currentColor" />
</svg>