<svg viewBox="0 0 24 21" fill="none" xmlns="http://www.w3.org/2000/svg">
    <path
        d="M7 18C6.45 18 5.97917 17.8042 5.5875 17.4125C5.19583 17.0208 5 16.55 5 16V3C4.71667 3 4.47917 2.90417 4.2875 2.7125C4.09583 2.52083 4 2.28333 4 2C4 1.71667 4.09583 1.47917 4.2875 1.2875C4.47917 1.09583 4.71667 1 5 1H9C9 0.716667 9.09583 0.479167 9.2875 0.2875C9.47917 0.0958333 9.71667 0 10 0H14C14.2833 0 14.5208 0.0958333 14.7125 0.2875C14.9042 0.479167 15 0.716667 15 1H19C19.2833 1 19.5208 1.09583 19.7125 1.2875C19.9042 1.47917 20 1.71667 20 2C20 2.28333 19.9042 2.52083 19.7125 2.7125C19.5208 2.90417 19.2833 3 19 3V16C19 16.55 18.8042 17.0208 18.4125 17.4125C18.0208 17.8042 17.55 18 17 18H7ZM10 14C10.2833 14 10.5208 13.9042 10.7125 13.7125C10.9042 13.5208 11 13.2833 11 13V6C11 5.71667 10.9042 5.47917 10.7125 5.2875C10.5208 5.09583 10.2833 5 10 5C9.71667 5 9.47917 5.09583 9.2875 5.2875C9.09583 5.47917 9 5.71667 9 6V13C9 13.2833 9.09583 13.5208 9.2875 13.7125C9.47917 13.9042 9.71667 14 10 14ZM14 14C14.2833 14 14.5208 13.9042 14.7125 13.7125C14.9042 13.5208 15 13.2833 15 13V6C15 5.71667 14.9042 5.47917 14.7125 5.2875C14.5208 5.09583 14.2833 5 14 5C13.7167 5 13.4792 5.09583 13.2875 5.2875C13.0958 5.47917 13 5.71667 13 6V13C13 13.2833 13.0958 13.5208 13.2875 13.7125C13.4792 13.9042 13.7167 14 14 14Z"
        fill="currentColor" />
</svg>