<svg xmlns="http://www.w3.org/2000/svg" width="167" height="211" viewBox="0 0 167 211" fill="none">
    <path
        d="M131.75 4.5197L64.3799 49.6697L132.83 107.12C135.47 109.338 137.558 112.139 138.929 115.303C140.301 118.467 140.918 121.906 140.732 125.349C140.545 128.792 139.561 132.145 137.857 135.142C136.152 138.139 133.774 140.699 130.91 142.62L101.91 162.04L129.8 185.45C144.27 197.59 166.33 187.31 166.33 168.45V22.9997C166.329 18.9744 165.236 15.0249 163.166 11.5726C161.096 8.1203 158.128 5.2947 154.578 3.3975C151.027 1.5003 147.029 0.602622 143.008 0.800252C138.988 0.997882 135.097 2.2834 131.75 4.5197Z"
        fill="url(#paint0_linear_1078_15039)" />
    <path
        d="M35.41 69.0898L64.41 49.6698L36.49 26.2598C22 14.1098 8.90088e-07 24.3998 8.90088e-07 43.2898V188.72C-0.00113911 192.749 1.0928 196.703 3.1649 200.158C5.2369 203.614 8.2092 206.441 11.7638 208.338C15.3185 210.235 19.3219 211.13 23.346 210.928C27.37 210.726 31.2635 209.434 34.61 207.19L101.94 162L33.49 104.59C30.8499 102.372 28.7617 99.57 27.3904 96.407C26.019 93.243 25.4021 89.8037 25.5883 86.3606C25.7746 82.9175 26.7588 79.5648 28.4634 76.5675C30.1679 73.5701 32.5461 71.0102 35.41 69.0898Z"
        fill="#34E5FF" />
    <path
        d="M132.83 107.12L64.38 49.6699L35.38 69.0899C32.5161 71.0103 30.1379 73.5702 28.4334 76.5676C26.7288 79.5649 25.7446 82.9175 25.5583 86.3606C25.3721 89.8037 25.989 93.243 27.3604 96.407C28.7317 99.57 30.8199 102.372 33.46 104.59L101.94 162L130.94 142.58C133.795 140.656 136.164 138.096 137.861 135.101C139.558 132.106 140.536 128.758 140.719 125.321C140.903 121.883 140.285 118.45 138.916 115.292C137.547 112.134 135.464 109.336 132.83 107.12Z"
        fill="#000063" />
    <defs>
        <linearGradient id="paint0_linear_1078_15039" x1="115.37" y1="1.1797" x2="115.37" y2="196.47"
            gradientUnits="userSpaceOnUse">
            <stop stop-color="#008AEA" />
            <stop offset="1" stop-color="#0042E3" />
        </linearGradient>
    </defs>
</svg>