<svg width="182" height="40" viewBox="0 0 182 40" fill="none" xmlns="http://www.w3.org/2000/svg">
<g clip-path="url(#clip0_128_6588)">
<path d="M24.161 2.35351L12.4297 10.2156L24.3491 20.2195C24.8088 20.6057 25.1724 21.0936 25.4112 21.6445C25.65 22.1954 25.7574 22.7943 25.725 23.3938C25.6926 23.9934 25.5212 24.5772 25.2244 25.0991C24.9275 25.6211 24.5134 26.0668 24.0147 26.4012L18.9649 29.7829L23.8214 33.8593C26.3411 35.9733 30.1825 34.1832 30.1825 30.8991V5.57148C30.1824 4.87056 29.992 4.18282 29.6315 3.58166C29.2711 2.9805 28.7542 2.48848 28.136 2.15811C27.5179 1.82775 26.8216 1.67143 26.1215 1.70584C25.4214 1.74025 24.7438 1.96411 24.161 2.35351Z" fill="url(#paint0_linear_128_6588)"/>
<path d="M7.38479 13.5989L12.4346 10.2172L7.57285 6.14077C5.04967 4.02506 1.21875 5.81689 1.21875 9.10625V34.4304C1.21855 35.132 1.40904 35.8204 1.76985 36.4222C2.13067 37.0239 2.64823 37.5162 3.26722 37.8465C3.8862 38.1769 4.58332 38.3328 5.28404 38.2975C5.98476 38.2623 6.66274 38.0373 7.24548 37.6466L18.9698 29.7775L7.05045 19.7806C6.59073 19.3944 6.2271 18.9065 5.98831 18.3556C5.74951 17.8047 5.64209 17.2058 5.67451 16.6063C5.70694 16.0067 5.87833 15.4229 6.17515 14.901C6.47197 14.379 6.88609 13.9333 7.38479 13.5989Z" fill="#34E5FF"/>
<path d="M24.3487 20.2207L12.4293 10.2168L7.3795 13.5985C6.8808 13.9328 6.46668 14.3786 6.16986 14.9006C5.87305 15.4225 5.70165 16.0063 5.66923 16.6058C5.6368 17.2054 5.74423 17.8043 5.98302 18.3552C6.22182 18.9061 6.58544 19.3939 7.04516 19.7802L18.9698 29.7771L24.0196 26.3955C24.5167 26.0605 24.9292 25.6147 25.2247 25.0932C25.5202 24.5716 25.6906 23.9886 25.7225 23.3901C25.7544 22.7915 25.647 22.1937 25.4086 21.6437C25.1702 21.0938 24.8074 20.6066 24.3487 20.2207Z" fill="#000063"/>
<path d="M40.7191 6.34922C40.8995 6.3701 41.0756 6.41825 41.2415 6.49201C41.4024 6.56708 41.5505 6.66698 41.6803 6.78803C41.8518 6.95038 42.0113 7.12497 42.1575 7.31043L55.3741 24.0306C55.323 23.4966 55.2853 22.9777 55.2609 22.4739C55.2366 21.9701 55.2238 21.4953 55.2226 21.0495V6.31091H60.915V34.1477H57.5508C57.1193 34.1593 56.6901 34.0817 56.2901 33.9196C55.8953 33.7241 55.554 33.4354 55.2958 33.0786L42.1714 16.4942C42.2079 16.9783 42.241 17.4519 42.2654 17.9168C42.2898 18.3818 42.3037 18.8189 42.3037 19.2263V34.1477H36.6113V6.31091H40.0121C40.2484 6.30817 40.4846 6.32096 40.7191 6.34922Z" fill="#006EDF"/>
<path d="M73.982 14.0303C75.2099 14.0157 76.4304 14.2228 77.5848 14.6415C78.6373 15.0259 79.5951 15.6316 80.3936 16.4176C81.1991 17.2298 81.8239 18.203 82.2272 19.2734C82.6831 20.4983 82.9063 21.7975 82.8854 23.1043C82.89 23.4685 82.8708 23.8327 82.828 24.1944C82.8052 24.4293 82.734 24.657 82.619 24.8631C82.5267 25.0234 82.3813 25.1465 82.208 25.2113C81.9953 25.2816 81.772 25.314 81.5481 25.3071H70.1232C70.3148 26.9625 70.818 28.1634 71.633 28.9099C72.4479 29.6563 73.4985 30.0284 74.7848 30.0261C75.3869 30.0382 75.987 29.9541 76.5627 29.7771C77.0194 29.6286 77.4632 29.4428 77.8895 29.2216C78.2779 29.0196 78.6348 28.8333 78.9605 28.6679C79.2764 28.5047 79.627 28.4199 79.9826 28.4206C80.1906 28.409 80.3981 28.451 80.5853 28.5424C80.7725 28.6339 80.9331 28.7718 81.0518 28.943L82.7722 31.0639C82.2011 31.7244 81.5358 32.2971 80.7976 32.7634C80.1145 33.1916 79.3833 33.5376 78.6192 33.7943C77.8927 34.0408 77.1438 34.2158 76.3833 34.3167C75.6771 34.4088 74.9658 34.4565 74.2537 34.4595C72.9223 34.4693 71.5999 34.2399 70.3496 33.7821C69.1552 33.3449 68.0676 32.658 67.1595 31.7674C66.2142 30.8234 65.4785 29.6907 65.0003 28.4432C64.4709 27.1175 64.2062 25.5758 64.2062 23.8183C64.1992 22.5328 64.4294 21.2571 64.8853 20.0553C65.321 18.8855 65.9916 17.8174 66.856 16.9169C67.7203 16.0163 68.7599 15.3024 69.9108 14.8191C71.1993 14.2795 72.5852 14.011 73.982 14.0303ZM74.0969 18.1189C72.9639 18.1189 72.0787 18.4405 71.4414 19.0836C70.8041 19.7267 70.3839 20.6554 70.1807 21.8697H77.5744C77.5772 21.4055 77.5186 20.9429 77.4002 20.4941C77.2844 20.0604 77.0831 19.6543 76.8082 19.2995C76.5179 18.9376 76.1486 18.6469 75.7286 18.4498C75.2169 18.217 74.6589 18.1039 74.0969 18.1189Z" fill="#006EDF"/>
<path d="M89.8785 23.9075L83.4966 14.3302H89.1907C89.5079 14.3101 89.8255 14.3656 90.1171 14.4921C90.3361 14.6247 90.5163 14.8127 90.6395 15.0372L94.1744 20.9037C94.2514 20.6735 94.3469 20.4499 94.4599 20.235C94.5749 20.0174 94.702 19.7893 94.843 19.5385L97.3645 15.1242C97.4925 14.8728 97.6832 14.6587 97.9182 14.5026C98.1465 14.3786 98.4039 14.3185 98.6635 14.3285H104.089L97.7093 23.6341L104.358 34.1413H98.6635C98.3012 34.1599 97.9436 34.0522 97.6518 33.8365C97.3987 33.6354 97.185 33.3892 97.0214 33.1104L93.4865 27.0349C93.4247 27.2439 93.3479 27.4482 93.2567 27.6461C93.1714 27.8294 93.076 28.0079 92.9711 28.1807L90.0666 33.1104C89.9078 33.384 89.7008 33.6265 89.4554 33.8261C89.1845 34.0419 88.8455 34.1537 88.4994 34.1413H83.2354L89.8785 23.9075Z" fill="#006EDF"/>
<path d="M112.577 14.334V26.9064C112.577 27.8861 112.8 28.6442 113.246 29.1805C113.691 29.7169 114.347 29.9839 115.213 29.9815C115.844 29.9864 116.468 29.8495 117.038 29.581C117.642 29.2891 118.198 28.9094 118.691 28.4544V14.334H124.611V34.1468H120.946C120.207 34.1468 119.723 33.8159 119.493 33.1542L119.131 32.0084C118.759 32.3687 118.363 32.7038 117.945 33.0114C117.537 33.3106 117.099 33.5663 116.638 33.7741C116.155 33.9904 115.653 34.1573 115.137 34.2722C114.559 34.3948 113.97 34.4532 113.38 34.4463C112.392 34.4654 111.412 34.2731 110.505 33.8821C109.69 33.5234 108.968 32.9845 108.392 32.3062C107.805 31.6065 107.363 30.7967 107.092 29.9241C106.79 28.9469 106.642 27.9289 106.653 26.9064V14.334H112.577Z" fill="#006EDF"/>
<path d="M129.207 34.1482V5.54688H135.127V16.0749C135.824 15.4726 136.604 14.9735 137.443 14.5931C138.389 14.1967 139.408 14.005 140.433 14.0306C141.421 14.0117 142.403 14.2034 143.311 14.5931C144.122 14.9521 144.843 15.4875 145.422 16.1603C146.012 16.8603 146.454 17.6731 146.721 18.5494C147.022 19.5235 147.171 20.5386 147.161 21.5584V34.1482H141.241V21.5584C141.241 20.5902 141.018 19.8356 140.572 19.2946C140.126 18.7537 139.47 18.4832 138.604 18.4832C137.969 18.4805 137.342 18.6241 136.771 18.9028C136.173 19.1986 135.62 19.5767 135.127 20.026V34.1482H129.207Z" fill="#006EDF"/>
<path d="M151.361 34.1483V14.3355H155.03C155.357 14.3241 155.68 14.4108 155.957 14.5845C156.213 14.7636 156.398 15.0276 156.479 15.3298L156.803 16.3989C157.127 16.0624 157.472 15.7466 157.836 15.4534C158.194 15.1655 158.582 14.9157 158.992 14.7081C159.417 14.4926 159.866 14.3261 160.329 14.2118C160.842 14.0891 161.369 14.0306 161.896 14.0377C163.093 14.0377 164.083 14.3465 164.867 14.9641C165.674 15.6135 166.291 16.4683 166.654 17.4385C166.968 16.8508 167.38 16.3208 167.873 15.8713C168.336 15.4502 168.857 15.0983 169.421 14.8265C169.98 14.5576 170.57 14.3588 171.178 14.2345C171.784 14.1088 172.402 14.0452 173.022 14.0447C174.05 14.0268 175.073 14.198 176.039 14.5496C176.88 14.8615 177.636 15.3654 178.247 16.0211C178.862 16.7042 179.322 17.5129 179.593 18.391C179.912 19.416 180.068 20.485 180.053 21.5585V34.1483H174.133V21.5585C174.133 19.5072 173.254 18.4816 171.496 18.4816C171.127 18.4706 170.759 18.5353 170.416 18.6715C170.072 18.8078 169.76 19.0127 169.499 19.2739C168.972 19.8032 168.708 20.5648 168.707 21.5585V34.1483H162.786V21.5585C162.786 20.4255 162.563 19.6291 162.118 19.1694C161.672 18.7097 161.016 18.4775 160.15 18.4728C159.621 18.4715 159.1 18.5962 158.63 18.8368C158.134 19.0914 157.681 19.4196 157.284 19.8102V34.1483H151.361Z" fill="#006EDF"/>
</g>
<defs>
<linearGradient id="paint0_linear_128_6588" x1="21.3087" y1="1.77191" x2="21.3087" y2="35.7783" gradientUnits="userSpaceOnUse">
<stop stop-color="#008AEA"/>
<stop offset="1" stop-color="#0042E3"/>
</linearGradient>
<clipPath id="clip0_128_6588">
<rect width="181.272" height="40" fill="white"/>
</clipPath>
</defs>
</svg>
